<svg xmlns="http://www.w3.org/2000/svg" width="1536" height="1024" viewBox="0 0 1536 1024">
  <defs>
    <filter id="shadow" x="-20%" y="-20%" width="140%" height="140%"><feDropShadow dx="0" dy="8" stdDeviation="16" flood-color="#172033" flood-opacity=".10"/></filter>
    <linearGradient id="pink" x1="0" x2="1"><stop stop-color="#ff2d7a"/><stop offset="1" stop-color="#8b5cf6"/></linearGradient>
    <style>
      .bg{fill:#f8fafc}.paper{fill:#fff}.ink{fill:#121a2f}.muted{fill:#687087}.pink{fill:#ff2d7a}.violet{fill:#7c4dff}
      .line{stroke:#e5e7eb;stroke-width:2}.soft{fill:#f6f4ff}.softpink{fill:#fff1f6}.softblue{fill:#eff6ff}.green{fill:#ecfdf5}
      .t1{font:700 42px Inter,Arial,sans-serif}.t2{font:700 24px Inter,Arial,sans-serif}.t3{font:700 18px Inter,Arial,sans-serif}.body{font:400 15px Inter,Arial,sans-serif}.small{font:400 12px Inter,Arial,sans-serif}
      .chip{fill:#fff;stroke:#e4e7ec;stroke-width:1.5}.chipOn{fill:#fff1f6;stroke:#ff2d7a;stroke-width:1.5}.btn{fill:url(#pink)}.btn2{fill:#fff;stroke:#7c4dff;stroke-width:1.5}
    </style>
  </defs>
  <rect class="bg" width="1536" height="1024"/>
  <text x="48" y="64" class="t1 ink">Blind Karaoke — Product Reference</text>
  <text x="48" y="94" class="body muted">Desktop-Übersicht für die Implementierung: Fokus auf Blind Match, Duo-Room und reale Treffen.</text><rect x="48" y="142" width="1440" height="106" rx="24" fill="#fff" filter="url(#shadow)"/>
<text x="84" y="184" class="t2 ink">Blind Karaoke</text><text x="84" y="214" class="body muted">Sing together. Meet naturally.</text>
<text x="980" y="198" class="body ink">Start</text><text x="1070" y="198" class="body muted">Match</text><text x="1160" y="198" class="body muted">Room</text><text x="1245" y="198" class="body muted">Freunde</text><rect x="48" y="282" width="520" height="600" rx="28" fill="#fff" filter="url(#shadow)"/><text x="92" y="350" class="t1 ink" style="font-size:36px">Sing. Meet.</text><text x="92" y="396" class="t1 pink" style="font-size:36px">Connect.</text><text x="92" y="446" class="body muted">Kein Profilkatalog. Die App findet ein Duo,</text><text x="92" y="472" class="body muted">das praktisch und musikalisch gut passen kann.</text><circle cx="170" cy="570" r="42" fill="#ff2d7a" opacity=".16"/><circle cx="170" cy="562" r="15" fill="#ff2d7a"/><path d="M 144 596 Q 170 568 196 596Z" fill="#ff2d7a"/><circle cx="346" cy="570" r="42" fill="#4f7cff" opacity=".16"/><circle cx="346" cy="562" r="15" fill="#4f7cff"/><path d="M 320 596 Q 346 568 372 596Z" fill="#4f7cff"/><rect x="92" y="664" width="432" height="52" rx="14" class="btn"/>
  <text x="308" y="696" text-anchor="middle" style="font:700 15px Inter,Arial;fill:#fff">Blind Karaoke starten</text><rect x="92" y="734" width="432" height="52" rx="14" class="btn2"/>
  <text x="308" y="766" text-anchor="middle" style="font:700 15px Inter,Arial;fill:#6d3ff2">Mit Freunden singen</text><rect x="606" y="282" width="882" height="600" rx="28" fill="#fff" filter="url(#shadow)"/><text x="648" y="336" class="t2 ink">Showcase Flow</text><circle cx="654" cy="410" r="28" fill="#ff2d7a"/><text x="654" y="416" text-anchor="middle" style="font:700 14px Inter,Arial;fill:#fff">1</text><text x="654" y="462" text-anchor="middle" class="small ink">Präferenzen</text><path d="M 692 410 H 780" stroke="#d8dce5" stroke-width="3" marker-end="url(#none)"/><circle cx="818" cy="410" r="28" fill="#f3efff"/><text x="818" y="416" text-anchor="middle" style="font:700 14px Inter,Arial;fill:#6d3ff2">2</text><text x="818" y="462" text-anchor="middle" class="small ink">Match</text><path d="M 856 410 H 944" stroke="#d8dce5" stroke-width="3" marker-end="url(#none)"/><circle cx="982" cy="410" r="28" fill="#f3efff"/><text x="982" y="416" text-anchor="middle" style="font:700 14px Inter,Arial;fill:#6d3ff2">3</text><text x="982" y="462" text-anchor="middle" class="small ink">Bestätigen</text><path d="M 1020 410 H 1108" stroke="#d8dce5" stroke-width="3" marker-end="url(#none)"/><circle cx="1146" cy="410" r="28" fill="#f3efff"/><text x="1146" y="416" text-anchor="middle" style="font:700 14px Inter,Arial;fill:#6d3ff2">4</text><text x="1146" y="462" text-anchor="middle" class="small ink">Singen</text><path d="M 1184 410 H 1272" stroke="#d8dce5" stroke-width="3" marker-end="url(#none)"/><circle cx="1310" cy="410" r="28" fill="#f3efff"/><text x="1310" y="416" text-anchor="middle" style="font:700 14px Inter,Arial;fill:#6d3ff2">5</text><text x="1310" y="462" text-anchor="middle" class="small ink">Verbinden</text><rect x="648" y="518" width="370" height="284" rx="20" class="softpink"/><text x="678" y="560" class="t3 ink">Blind Match</text><text x="678" y="592" class="body muted">• Ort und Zeit zuerst</text><text x="678" y="624" class="body muted">• gegenseitige Präferenzen</text><text x="678" y="656" class="body muted">• Musik nur als weiches Signal</text><text x="678" y="688" class="body muted">• Identität erst nach Bestätigung</text><rect x="1050" y="518" width="396" height="284" rx="20" class="soft"/><text x="1080" y="560" class="t3 ink">Karaoke Room</text><text x="1080" y="592" class="body muted">• gemeinsame Realtime-Queue</text><text x="1080" y="624" class="body muted">• externe Karaoke-Links</text><text x="1080" y="656" class="body muted">• Duett Roulette</text><text x="1080" y="688" class="body muted">• privates Feedback danach</text><rect x="48" y="922" width="1440" height="62" rx="18" fill="#fff"/><text x="136" y="960" class="t3 pink">D1</text><text x="190" y="960" class="body ink">Echte Zwei-Browser-Nutzung · Firebase Realtime · keine Fake-Buttons · kein öffentlicher Profilfeed · keine KI-Abhängigkeit</text></svg>